<svg xmlns="http://www.w3.org/2000/svg" width="20" height="21.5" viewBox="0 0 20 21.5"><defs><style>.a{fill:#0a572d;}.b{fill:red;stroke:#fff;}.c{stroke:none;}.d{fill:none;}</style></defs><path class="a" d="M12,22a2.006,2.006,0,0,0,2-2H10A2.006,2.006,0,0,0,12,22Zm6-6V11c0-3.07-1.63-5.64-4.5-6.32V4a1.5,1.5,0,0,0-3,0v.68C7.64,5.36,6,7.92,6,11v5L4,18v1H20V18Zm-2,1H8V11c0-2.48,1.51-4.5,4-4.5s4,2.02,4,4.5Z" transform="translate(-4 -0.5)"/><g class="b" transform="translate(10)"><circle class="c" cx="5" cy="5" r="5"/><circle class="d" cx="5" cy="5" r="4.5"/></g></svg>