<svg xmlns="http://www.w3.org/2000/svg" xmlns:xlink="http://www.w3.org/1999/xlink" width="143" height="148" viewBox="0 0 143 148"><defs><style>.a{fill:#08bc2b;}.b{fill:none;}.c{fill:#fff;fill-rule:evenodd;}.d{filter:url(#a);}</style><filter id="a" x="0" y="0" width="143" height="148" filterUnits="userSpaceOnUse"><feOffset dx="-5" dy="10" input="SourceAlpha"/><feGaussianBlur stdDeviation="10" result="b"/><feFlood flood-color="#00a030" flood-opacity="0.2"/><feComposite operator="in" in2="b"/><feComposite in="SourceGraphic"/></filter></defs><g transform="translate(-611 -116)"><g class="d" transform="matrix(1, 0, 0, 1, 611, 116)"><rect class="a" width="83" height="88" rx="10" transform="translate(35 20)"/></g><g transform="translate(668 160)"><rect class="b" width="40" height="40"/><g transform="translate(3.333 1.249)"><path class="c" d="M18.667,4.084a5,5,0,1,0,5,5A5,5,0,0,0,18.667,4.084ZM2,30.75A16.667,16.667,0,0,1,12.9,15.1a8.333,8.333,0,1,1,5.767,2.317A13.333,13.333,0,0,0,5.333,30.75v1.667a1.667,1.667,0,1,1-3.333,0Zm16.667-2.5a6.667,6.667,0,1,1,6.667,6.667A6.667,6.667,0,0,1,18.667,28.25Zm6.667-10a10,10,0,1,0,10,10A10,10,0,0,0,25.333,18.25Zm4.783,8.683A1.7,1.7,0,0,0,27.75,24.5l-3.767,3.833L22.95,27.217A1.675,1.675,0,1,0,20.5,29.5l1.967,2.15a2.017,2.017,0,0,0,2.9,0Z" transform="translate(-2 -0.749)"/></g></g></g></svg>