<svg xmlns="http://www.w3.org/2000/svg" width="45" height="45" viewBox="0 0 45 45"><defs><style>.a{fill:rgba(17,17,17,0);stroke:#00a030;}.b{fill:#08bc2b;}.c{stroke:none;}.d{fill:none;}</style></defs><g transform="translate(-27.304 -982.304)"><g class="a" transform="translate(27.304 982.304)"><circle class="c" cx="22.5" cy="22.5" r="22.5"/><circle class="d" cx="22.5" cy="22.5" r="22"/></g><path class="b" d="M2276,6.429A8.331,8.331,0,0,1,2278.448.52L2279.926,2a6.268,6.268,0,1,0,8.864,0L2290.267.52A8.357,8.357,0,1,1,2276,6.429Zm7.309-1.024,0-8.361A1.043,1.043,0,0,1,2284.358-4a1.044,1.044,0,0,1,1.045,1.045l0,8.361a1.045,1.045,0,1,1-2.089,0Z" transform="translate(-2234.696 999.304)"/></g></svg>