<svg xmlns="http://www.w3.org/2000/svg" width="27" height="24" viewBox="0 0 27 24"><defs><style>.a{fill:none;}.b{fill:#0a572d;}.c{fill:red;stroke:#fff;}.d{stroke:none;}</style></defs><rect class="a" width="24" height="24"/><g transform="translate(1 2.406)"><path class="b" d="M4,7.39H7v-2a3,3,0,0,1,3-3H20a3,3,0,0,1,3,3v6a3,3,0,0,1-3,3H18.45L17,16v.36a3,3,0,0,1-3,3H10.45L8.94,21.07a1.5,1.5,0,0,1-2.25,0L5.18,19.36H4a3,3,0,0,1-3-3v-6A3,3,0,0,1,4,7.39Zm16,5a1,1,0,0,0,1-1v-6a1,1,0,0,0-1-1H10a1,1,0,0,0-1,1v6a1,1,0,0,0,1,1h4.07l1.74,2,1.74-2Zm-17,4a1,1,0,0,0,1,1H6.07l1.74,2.08,1.74-2.08H14a1,1,0,0,0,1-1h0a1.58,1.58,0,0,1-.31-.27l-1.51-1.71H10a3,3,0,0,1-3-3v-2H4a1,1,0,0,0-1,1Z" transform="translate(-1 -2.39)"/></g><g class="c" transform="translate(17)"><circle class="d" cx="5" cy="5" r="5"/><circle class="a" cx="5" cy="5" r="4.5"/></g></svg>