<svg xmlns="http://www.w3.org/2000/svg" xmlns:xlink="http://www.w3.org/1999/xlink" width="151" height="150" viewBox="0 0 151 150"><defs><style>.a{fill:#ffb03c;}.b{fill:#fff;fill-rule:evenodd;}.c{filter:url(#a);}</style><filter id="a" x="0" y="0" width="151" height="150" filterUnits="userSpaceOnUse"><feOffset dy="20" input="SourceAlpha"/><feGaussianBlur stdDeviation="15" result="b"/><feFlood flood-color="#ffb03c" flood-opacity="0.2"/><feComposite operator="in" in2="b"/><feComposite in="SourceGraphic"/></filter></defs><g transform="translate(-1730 -1106)"><g class="c" transform="matrix(1, 0, 0, 1, 1730, 1106)"><rect class="a" width="61" height="60" rx="10" transform="translate(45 25)"/></g><g transform="translate(1793 1148)"><path class="b" d="M2,24.1A3.9,3.9,0,0,0,5.9,28H24.1A3.9,3.9,0,0,0,28,24.1V5.9A3.9,3.9,0,0,0,24.1,2H5.9A3.9,3.9,0,0,0,2,5.9Zm23.4,0a1.3,1.3,0,0,1-1.3,1.3H5.9a1.3,1.3,0,0,1-1.3-1.3V5.9A1.3,1.3,0,0,1,5.9,4.6h6.5V15.014h3.114L17.6,12.223l2.087,2.791H22.8V4.6h1.3a1.3,1.3,0,0,1,1.3,1.3ZM20.2,4.6H15v6.937l2.6-3.478,2.6,3.478Z" transform="translate(-2 -2)"/></g></g></svg>