<svg xmlns="http://www.w3.org/2000/svg" width="20" height="17.5" viewBox="0 0 20 17.5"><defs><style>.a{fill:#858e88;fill-rule:evenodd;}</style></defs><path class="a" d="M3.333,1.5A1.667,1.667,0,0,0,1.667,3.167V4q0,.071.006.14A2.5,2.5,0,0,0,0,6.5v10A2.5,2.5,0,0,0,2.5,19h15A2.5,2.5,0,0,0,20,16.5V6.5A2.5,2.5,0,0,0,17.5,4H9.895A3.335,3.335,0,0,0,6.667,1.5ZM8.11,4a1.666,1.666,0,0,0-1.444-.833H3.333V4ZM2.5,5.667a.833.833,0,0,0-.833.833v10a.833.833,0,0,0,.833.833h15a.833.833,0,0,0,.833-.833V6.5a.833.833,0,0,0-.833-.833Z" transform="translate(0 -1.5)"/></svg>