<svg xmlns="http://www.w3.org/2000/svg" width="20.683" height="21.022" viewBox="0 0 20.683 21.022"><defs><style>.a{fill:#0e1317;}</style></defs><path class="a" d="M5.046,25.107a1.429,1.429,0,0,1,0-2L22.86,5.076a1.389,1.389,0,0,1,1.39-.456,1.408,1.408,0,0,1,1.033,1.046,1.427,1.427,0,0,1-.45,1.407L7.019,25.107a1.387,1.387,0,0,1-1.973,0Z" transform="translate(-4.639 -4.58)"/><path class="a" d="M5.046,5.051a1.387,1.387,0,0,1,1.973,0L24.833,23.085a1.427,1.427,0,0,1,.45,1.407,1.408,1.408,0,0,1-1.033,1.046,1.389,1.389,0,0,1-1.39-.456L5.046,7.049A1.429,1.429,0,0,1,5.046,5.051Z" transform="translate(-4.639 -4.556)"/></svg>