<svg xmlns="http://www.w3.org/2000/svg" width="24" height="24" viewBox="0 0 24 24"><defs><style>.a{fill:none;}.b{fill:#0a572d;fill-rule:evenodd;}</style></defs><rect class="a" width="24" height="24"/><g transform="translate(0 0)"><path class="b" d="M22,19H21V11.2A1.2,1.2,0,0,0,19.8,10H17.2A1.2,1.2,0,0,0,16,11.2V19H15V4.2A1.2,1.2,0,0,0,13.76,3h-2.6A1.2,1.2,0,0,0,10,4.2V19H9V8.2A1.2,1.2,0,0,0,7.76,7H5.16A1.2,1.2,0,0,0,4,8.2V19H2a1,1,0,0,0,0,2H22a1,1,0,0,0,0-2ZM6,19V9H7V19Zm6,0V5h1V19Zm6,0V12h1v7Z"/></g></svg>