<svg xmlns="http://www.w3.org/2000/svg" width="18.425" height="18.4" viewBox="0 0 18.425 18.4"><defs><style>.a{fill:#858e88;fill-rule:evenodd;}</style></defs><path class="a" d="M11.333,8a3.333,3.333,0,1,0,3.333,3.333A3.333,3.333,0,0,0,11.333,8Zm0,5A1.667,1.667,0,1,1,13,11.333,1.667,1.667,0,0,1,11.333,13Z" transform="translate(-2.167 -2.167)"/><path class="a" d="M17.158,7.275a2.5,2.5,0,0,0-.217-3.292l-.592-.592a2.5,2.5,0,0,0-3.333-.217A2.5,2.5,0,0,0,10.583,1H9.75a2.5,2.5,0,0,0-2.5,2.175,2.5,2.5,0,0,0-3.292.217l-.592.592A2.5,2.5,0,0,0,3.15,7.275,2.5,2.5,0,0,0,1,9.75v.833a2.5,2.5,0,0,0,2.175,2.5,2.5,2.5,0,0,0,.217,3.333l.592.592a2.5,2.5,0,0,0,3.292.217,2.5,2.5,0,0,0,2.5,2.175h.833a2.5,2.5,0,0,0,2.5-2.175,2.5,2.5,0,0,0,3.333-.217l.592-.592a2.5,2.5,0,0,0,.217-3.333,2.5,2.5,0,0,0,2.175-2.5V9.75a2.5,2.5,0,0,0-2.267-2.475Zm.508,3.333a.833.833,0,0,1-.833.833,1.508,1.508,0,0,0-1.067,2.583.833.833,0,0,1,0,1.175l-.592.592a.833.833,0,0,1-1.175,0,1.508,1.508,0,0,0-2.583,1.042.833.833,0,0,1-.833.833H9.75a.833.833,0,0,1-.833-.833,1.508,1.508,0,0,0-2.583-1.067.833.833,0,0,1-1.175,0l-.592-.6a.833.833,0,0,1,0-1.175A1.508,1.508,0,0,0,3.5,11.417a.833.833,0,0,1-.833-.833V9.75A.833.833,0,0,1,3.5,8.917,1.508,1.508,0,0,0,4.567,6.333a.833.833,0,0,1,0-1.167l.6-.6a.833.833,0,0,1,1.175,0A1.508,1.508,0,0,0,8.917,3.5a.833.833,0,0,1,.833-.833h.833a.833.833,0,0,1,.833.833A1.508,1.508,0,0,0,14,4.567a.833.833,0,0,1,1.175,0l.592.592a.833.833,0,0,1,0,1.175,1.508,1.508,0,0,0,1.067,2.583.833.833,0,0,1,.833.833Z" transform="translate(-1 -1)"/></svg>